<svg width="363" height="256" viewBox="0 0 363 256" fill="none" xmlns="http://www.w3.org/2000/svg">
<g clip-path="url(#clip0_3_137)">
<path d="M175.01 0.586239C165.323 2.4127 156.776 9.37609 152.673 18.6226C150.052 24.5586 149.596 36.5447 151.761 42.1383C157.346 56.2934 172.617 64.8549 187.318 62.1152C207.604 58.234 218.887 34.8324 209.428 16.4536C203.387 4.80994 188.686 -2.0393 175.01 0.586239Z" fill="#006B3C"/>
<path d="M143.669 47.1611C133.299 52.4122 122.7 62.4577 115.976 73.4165C108.682 85.631 106.175 95.6765 105.035 117.937C102.642 164.968 95.0063 185.402 73.8088 202.068C61.1587 211.885 58.4236 215.196 58.4236 220.903C58.4236 227.524 60.8168 232.319 66.857 237.57C80.8747 249.899 107.542 254.807 167.26 255.835C221.052 256.748 257.52 253.894 278.376 246.931C288.063 243.734 291.254 242.022 296.838 236.999C302.309 232.091 304.588 227.296 304.588 220.903C304.588 215.196 301.853 211.885 289.203 202.068C282.479 196.703 278.262 192.251 274.729 186.886C263.56 169.762 259.914 155.037 257.976 117.48C256.723 95.3341 254.671 86.6584 247.605 74.6722C241.793 64.7408 235.069 57.2066 226.978 51.7273C215.695 44.0789 215.239 44.0789 210.681 51.1565C204.185 61.202 194.156 66.7956 182.076 66.9097C169.084 67.0239 159.055 61.6587 152.331 51.1565C150.165 47.7319 148.228 44.9922 148.114 44.9922C148 45.1063 145.949 46.0196 143.669 47.1611Z" fill="#006B3C"/>
<path d="M49.6483 120.448C39.9613 122.274 31.4139 129.238 27.3112 138.484C24.69 144.42 24.2341 156.406 26.3995 162C31.9838 176.155 47.2551 184.717 61.9565 181.977C82.2423 178.096 93.5248 154.694 84.0657 136.315C78.0256 124.672 63.3241 117.822 49.6483 120.448Z" fill="#93B487"/>
<path d="M300.371 120.448C290.684 122.274 282.137 129.238 278.034 138.484C275.413 144.42 274.957 156.406 277.122 162C282.707 176.155 297.978 184.717 312.679 181.977C332.965 178.096 344.248 154.694 334.789 136.315C328.749 124.672 314.047 117.822 300.371 120.448Z" fill="#93B487"/>
<path d="M20.8153 177.068C10.6724 188.255 2.46694 208.803 0.757471 227.753L-0.0402832 235.401L3.83452 236.543C17.9662 241.109 39.5055 244.305 57.2841 244.647L68.1107 244.876L64.5778 241.109C57.512 233.575 55.0048 228.666 55.0048 222.159C55.0048 218.849 55.6886 214.739 56.6003 212.913C57.512 211.2 63.4382 205.607 69.7062 200.356C79.3932 192.365 87.3708 183.689 90.7897 177.639C91.3596 176.726 90.5618 175.128 88.8523 173.53L86.0032 170.79L82.3563 174.557C80.305 176.612 76.0883 179.808 72.8973 181.52C67.6549 184.488 65.8314 184.831 56.7142 184.831C44.9759 184.831 38.7078 182.434 30.8442 175.014L26.5135 170.904L20.8153 177.068Z" fill="#93B487"/>
<path d="M274.045 173.53C272.336 175.128 271.652 176.726 272.222 177.639C275.641 183.689 283.618 192.365 293.305 200.356C299.573 205.607 305.499 211.2 306.411 212.913C307.323 214.739 308.007 218.849 308.007 222.159C308.007 228.666 305.499 233.575 298.434 241.109L294.901 244.876L305.727 244.762C322.822 244.419 345.045 240.995 359.177 236.543L363.052 235.401L362.254 227.753C360.544 208.803 352.339 188.255 342.196 177.068L336.498 170.904L332.167 175.014C324.304 182.434 318.036 184.831 306.297 184.831C294.673 184.831 289.886 183.004 281.453 175.242L276.666 171.018L274.045 173.53Z" fill="#93B487"/>
</g>
<defs>
<clipPath id="clip0_3_137">
<rect width="363" height="256" fill="white"/>
</clipPath>
</defs>
</svg>
