<svg width="297" height="66" viewBox="0 0 297 66" fill="none" xmlns="http://www.w3.org/2000/svg">
<path d="M117.732 56.48C115.279 56.48 113.199 56.0667 111.492 55.24C109.786 54.3867 108.332 53.2933 107.132 51.96L111.132 47.92C113.026 50.0533 115.359 51.12 118.132 51.12C119.626 51.12 120.732 50.8133 121.452 50.2C122.172 49.5867 122.532 48.7733 122.532 47.76C122.532 46.9867 122.319 46.3467 121.892 45.84C121.466 45.3067 120.599 44.9467 119.292 44.76L116.532 44.4C113.572 44.0267 111.399 43.1333 110.012 41.72C108.652 40.3067 107.972 38.4267 107.972 36.08C107.972 34.8267 108.212 33.68 108.692 32.64C109.172 31.6 109.852 30.7067 110.732 29.96C111.639 29.2133 112.732 28.64 114.012 28.24C115.319 27.8133 116.799 27.6 118.452 27.6C120.559 27.6 122.412 27.9333 124.012 28.6C125.612 29.2667 126.986 30.24 128.132 31.52L124.092 35.6C123.426 34.8267 122.612 34.2 121.652 33.72C120.719 33.2133 119.532 32.96 118.092 32.96C116.732 32.96 115.719 33.2 115.052 33.68C114.386 34.16 114.052 34.8267 114.052 35.68C114.052 36.64 114.306 37.3333 114.812 37.76C115.346 38.1867 116.199 38.4933 117.372 38.68L120.132 39.12C123.012 39.5733 125.146 40.4667 126.532 41.8C127.919 43.1067 128.612 44.9733 128.612 47.4C128.612 48.7333 128.372 49.96 127.892 51.08C127.412 52.2 126.706 53.16 125.772 53.96C124.866 54.76 123.732 55.3867 122.372 55.84C121.012 56.2667 119.466 56.48 117.732 56.48ZM141.853 56.48C140.307 56.48 138.92 56.2267 137.693 55.72C136.493 55.2133 135.467 54.48 134.613 53.52C133.787 52.56 133.147 51.4 132.693 50.04C132.24 48.68 132.013 47.16 132.013 45.48C132.013 43.8 132.24 42.28 132.693 40.92C133.147 39.56 133.787 38.4133 134.613 37.48C135.467 36.52 136.493 35.7867 137.693 35.28C138.92 34.7733 140.307 34.52 141.853 34.52C143.4 34.52 144.773 34.7733 145.973 35.28C147.2 35.7867 148.227 36.52 149.053 37.48C149.907 38.4133 150.56 39.56 151.013 40.92C151.467 42.28 151.693 43.8 151.693 45.48C151.693 47.16 151.467 48.68 151.013 50.04C150.56 51.4 149.907 52.56 149.053 53.52C148.227 54.48 147.2 55.2133 145.973 55.72C144.773 56.2267 143.4 56.48 141.853 56.48ZM141.853 51.8C143.027 51.8 143.933 51.44 144.573 50.72C145.213 50 145.533 48.9733 145.533 47.64V43.36C145.533 42.0267 145.213 41 144.573 40.28C143.933 39.56 143.027 39.2 141.853 39.2C140.68 39.2 139.773 39.56 139.133 40.28C138.493 41 138.173 42.0267 138.173 43.36V47.64C138.173 48.9733 138.493 50 139.133 50.72C139.773 51.44 140.68 51.8 141.853 51.8ZM164.391 56.48C162.818 56.48 161.418 56.2267 160.191 55.72C158.965 55.1867 157.938 54.4533 157.111 53.52C156.285 52.56 155.658 51.4 155.231 50.04C154.805 48.68 154.591 47.16 154.591 45.48C154.591 43.8 154.805 42.2933 155.231 40.96C155.658 39.6 156.285 38.44 157.111 37.48C157.938 36.52 158.965 35.7867 160.191 35.28C161.418 34.7733 162.818 34.52 164.391 34.52C166.525 34.52 168.298 35 169.711 35.96C171.151 36.92 172.178 38.2667 172.791 40L167.991 42.08C167.805 41.28 167.418 40.6 166.831 40.04C166.245 39.48 165.431 39.2 164.391 39.2C163.191 39.2 162.285 39.6 161.671 40.4C161.058 41.1733 160.751 42.2267 160.751 43.56V47.48C160.751 48.8133 161.058 49.8667 161.671 50.64C162.285 51.4133 163.191 51.8 164.391 51.8C165.458 51.8 166.298 51.52 166.911 50.96C167.551 50.3733 168.018 49.6133 168.311 48.68L172.911 50.68C172.218 52.68 171.138 54.1467 169.671 55.08C168.231 56.0133 166.471 56.48 164.391 56.48ZM179.535 32.76C178.335 32.76 177.455 32.4933 176.895 31.96C176.362 31.4 176.095 30.6933 176.095 29.84V28.96C176.095 28.1067 176.362 27.4133 176.895 26.88C177.455 26.32 178.335 26.04 179.535 26.04C180.735 26.04 181.602 26.32 182.135 26.88C182.695 27.4133 182.975 28.1067 182.975 28.96V29.84C182.975 30.6933 182.695 31.4 182.135 31.96C181.602 32.4933 180.735 32.76 179.535 32.76ZM176.575 35H182.495V56H176.575V35ZM205.541 56L203.541 49.36H194.221L192.221 56H186.061L195.261 28.08H202.781L211.861 56H205.541ZM198.941 33.6H198.741L195.661 44.2H202.061L198.941 33.6ZM221.284 56C219.257 56 217.764 55.5067 216.804 54.52C215.87 53.5333 215.404 52.1067 215.404 50.24V26.4H221.324V51.4H223.964V56H221.284ZM243.033 56C241.966 56 241.073 55.6667 240.353 55C239.66 54.3333 239.22 53.44 239.033 52.32H238.793C238.473 53.68 237.766 54.72 236.673 55.44C235.58 56.1333 234.233 56.48 232.633 56.48C230.526 56.48 228.913 55.92 227.793 54.8C226.673 53.68 226.113 52.2 226.113 50.36C226.113 48.1467 226.913 46.5067 228.513 45.44C230.14 44.3467 232.34 43.8 235.113 43.8H238.433V42.48C238.433 41.4667 238.166 40.6667 237.633 40.08C237.1 39.4667 236.206 39.16 234.953 39.16C233.78 39.16 232.846 39.4133 232.153 39.92C231.46 40.4267 230.886 41 230.433 41.64L226.913 38.52C227.766 37.2667 228.833 36.2933 230.113 35.6C231.42 34.88 233.18 34.52 235.393 34.52C238.38 34.52 240.62 35.1733 242.113 36.48C243.606 37.7867 244.353 39.6933 244.353 42.2V51.4H246.313V56H243.033ZM234.833 52.36C235.82 52.36 236.66 52.1467 237.353 51.72C238.073 51.2933 238.433 50.6 238.433 49.64V47.16H235.553C233.233 47.16 232.073 47.9467 232.073 49.52V50.12C232.073 50.8933 232.313 51.4667 232.793 51.84C233.273 52.1867 233.953 52.36 234.833 52.36ZM250.286 56V35H256.206V39.56H256.406C256.513 38.9733 256.7 38.4133 256.966 37.88C257.233 37.32 257.58 36.8267 258.006 36.4C258.46 35.9733 258.993 35.64 259.606 35.4C260.22 35.1333 260.94 35 261.766 35H262.806V40.52H261.326C259.593 40.52 258.3 40.7467 257.446 41.2C256.62 41.6533 256.206 42.4933 256.206 43.72V56H250.286ZM266.458 56V35H272.378V38.56H272.618C272.992 37.44 273.632 36.4933 274.538 35.72C275.445 34.92 276.685 34.52 278.258 34.52C279.698 34.52 280.925 34.88 281.938 35.6C282.952 36.32 283.685 37.3733 284.138 38.76H284.258C284.445 38.1733 284.725 37.6267 285.098 37.12C285.498 36.5867 285.978 36.1333 286.538 35.76C287.098 35.3867 287.725 35.0933 288.418 34.88C289.112 34.64 289.858 34.52 290.658 34.52C292.685 34.52 294.232 35.24 295.298 36.68C296.392 38.12 296.938 40.1733 296.938 42.84V56H291.018V43.32C291.018 40.6533 290.058 39.32 288.138 39.32C287.258 39.32 286.458 39.5733 285.738 40.08C285.018 40.5867 284.658 41.36 284.658 42.4V56H278.738V43.32C278.738 40.6533 277.778 39.32 275.858 39.32C275.432 39.32 275.005 39.3867 274.578 39.52C274.178 39.6267 273.805 39.8133 273.458 40.08C273.138 40.3467 272.872 40.68 272.658 41.08C272.472 41.4533 272.378 41.8933 272.378 42.4V56H266.458Z" fill="#006B3C"/>
<g clip-path="url(#clip0_3_61)">
<path d="M47.0686 0.151147C44.4633 0.622032 42.1645 2.41728 41.0611 4.80114C40.3561 6.33152 40.2335 9.4217 40.8159 10.8638C42.3177 14.5131 46.4249 16.7204 50.3789 16.0141C55.8347 15.0135 58.8691 8.98024 56.3251 4.24196C54.7006 1.24007 50.7467 -0.525751 47.0686 0.151147Z" fill="#006B3C"/>
<path d="M38.6396 12.1587C35.8504 13.5125 32.9999 16.1024 31.1915 18.9277C29.2299 22.0767 28.5555 24.6666 28.249 30.4055C27.6054 42.5308 25.5518 47.7988 19.8508 52.0957C16.4486 54.6267 15.7129 55.4802 15.7129 56.9517C15.7129 58.6586 16.3566 59.8947 17.9811 61.2485C21.7511 64.427 28.9234 65.6925 44.9843 65.9573C59.4514 66.1928 69.2596 65.457 74.8686 63.6618C77.4739 62.8377 78.3321 62.3963 79.834 61.1013C81.3053 59.8358 81.9183 58.5998 81.9183 56.9517C81.9183 55.4802 81.1826 54.6267 77.7804 52.0957C75.972 50.7124 74.838 49.5647 73.8878 48.1814C70.884 43.7669 69.9032 39.9704 69.3822 30.2878C69.045 24.5783 68.4933 22.3416 66.593 19.2514C65.0298 16.691 63.2214 14.7486 61.0452 13.3359C58.0108 11.3641 57.8882 11.3641 56.6622 13.1888C54.9151 15.7786 52.2178 17.2207 48.9689 17.2502C45.4747 17.2796 42.7774 15.8964 40.969 13.1888C40.3867 12.3059 39.8656 11.5995 39.835 11.5995C39.8043 11.629 39.2526 11.8644 38.6396 12.1587Z" fill="#006B3C"/>
<path d="M13.3528 31.053C10.7475 31.5239 8.44873 33.3191 7.34531 35.703C6.64034 37.2334 6.51774 40.3235 7.1001 41.7656C8.60198 45.415 12.7092 47.6223 16.6631 46.9159C22.1189 45.9153 25.1533 39.8821 22.6093 35.1438C20.9848 32.1419 17.0309 30.3761 13.3528 31.053Z" fill="#93B487"/>
<path d="M80.7842 31.053C78.1789 31.5239 75.8801 33.3191 74.7767 35.703C74.0717 37.2334 73.9491 40.3235 74.5315 41.7656C76.0334 45.415 80.1405 47.6223 84.0945 46.9159C89.5503 45.9153 92.5847 39.8821 90.0407 35.1438C88.4162 32.1419 84.4623 30.3761 80.7842 31.053Z" fill="#93B487"/>
<path d="M5.59824 45.6504C2.87034 48.5346 0.663495 53.8321 0.203736 58.7175L-0.0108185 60.6893L1.0313 60.9836C4.83198 62.1608 10.6249 62.9849 15.4064 63.0732L18.3182 63.132L17.3681 62.1608C15.4677 60.2184 14.7934 58.9529 14.7934 57.2754C14.7934 56.4219 14.9773 55.3624 15.2225 54.8915C15.4677 54.4501 17.0616 53.008 18.7474 51.6542C21.3527 49.5941 23.4982 47.3574 24.4177 45.7976C24.571 45.5621 24.3564 45.1501 23.8967 44.7381L23.1304 44.0318L22.1496 45.003C21.5979 45.5327 20.4638 46.3567 19.6056 46.7982C18.1956 47.5634 17.7052 47.6517 15.2532 47.6517C12.0962 47.6517 10.4104 47.0336 8.2955 45.1207L7.13077 44.0612L5.59824 45.6504Z" fill="#93B487"/>
<path d="M73.7039 44.7381C73.2441 45.1501 73.0602 45.5621 73.2135 45.7976C74.133 47.3574 76.2785 49.5941 78.8838 51.6542C80.5696 53.008 82.1635 54.4501 82.4087 54.8915C82.6539 55.3624 82.8378 56.4219 82.8378 57.2754C82.8378 58.9529 82.1635 60.2184 80.2631 62.1608L79.313 63.132L82.2248 63.1026C86.8224 63.0143 92.7992 62.1314 96.5999 60.9836L97.642 60.6893L97.4275 58.7175C96.9677 53.8321 94.7609 48.5346 92.033 45.6504L90.5004 44.0612L89.3357 45.1207C87.2208 47.0336 85.535 47.6517 82.378 47.6517C79.2517 47.6517 77.9643 47.1808 75.6962 45.1795L74.4089 44.0906L73.7039 44.7381Z" fill="#93B487"/>
</g>
<defs>
<clipPath id="clip0_3_61">
<rect width="97.6281" height="66" fill="white"/>
</clipPath>
</defs>
</svg>
